<svg width="48" height="48" viewBox="0 0 48 48" fill="none" xmlns="http://www.w3.org/2000/svg">
<path d="M48 24C48 10.7452 37.2548 0 24 0C10.7452 0 0 10.7452 0 24C0 37.2548 10.7452 48 24 48C37.2548 48 48 37.2548 48 24Z" fill="black"/>
<path fill-rule="evenodd" clip-rule="evenodd" d="M31.4225 46.8288C29.0849 47.5891 26.5901 48.0001 24 48.0001C21.4081 48.0001 18.9118 47.5885 16.5728 46.8273C17.6533 46.9568 18.0525 46.2533 18.0525 45.6459C18.0525 45.3815 18.048 44.9151 18.0419 44.2912C18.035 43.5693 18.0259 42.6365 18.0195 41.5616C11.343 43.013 9.9345 38.3419 9.9345 38.3419C8.844 35.5681 7.2705 34.8295 7.2705 34.8295C5.091 33.3389 7.4355 33.3691 7.4355 33.3691C9.843 33.5388 11.1105 35.8443 11.1105 35.8443C13.2525 39.5145 16.728 38.4548 18.096 37.8392C18.3135 36.2872 18.9345 35.2287 19.62 34.6284C14.2905 34.0221 8.688 31.9626 8.688 22.7598C8.688 20.1374 9.6225 17.9941 11.1585 16.3143C10.911 15.7066 10.0875 13.2658 11.3925 9.95894C11.3925 9.95894 13.4085 9.31342 17.9925 12.4207C19.908 11.8877 21.96 11.6223 24.0015 11.6115C26.04 11.6219 28.0935 11.8877 30.0105 12.4207C34.5915 9.31342 36.603 9.95894 36.603 9.95894C37.9125 13.2658 37.089 15.7066 36.8415 16.3143C38.3805 17.9941 39.309 20.1374 39.309 22.7598C39.309 31.985 33.6975 34.0162 28.3515 34.6105C29.2125 35.352 29.9805 36.8169 29.9805 39.0581C29.9805 41.205 29.9671 43.074 29.9582 44.3126C29.9538 44.9262 29.9505 45.3851 29.9505 45.6463C29.9505 46.2565 30.3401 46.9614 31.4225 46.8288Z" fill="white"/>
</svg>
