<svg width="48" height="48" viewBox="0 0 48 48" fill="none" xmlns="http://www.w3.org/2000/svg">
<path d="M37.2262 0H10.7738C4.8236 0 0 4.8236 0 10.7738V37.2262C0 43.1764 4.8236 48 10.7738 48H37.2262C43.1764 48 48 43.1764 48 37.2262V10.7738C48 4.8236 43.1764 0 37.2262 0Z" fill="#0B86CA"/>
<path d="M13.301 19.9515H18.2889V36.0457H13.301V19.9515ZM15.8448 11.9542C16.4163 11.9542 16.975 12.1235 17.4503 12.4406C17.9257 12.7578 18.2965 13.2086 18.516 13.7363C18.7354 14.2639 18.7937 14.8448 18.6834 15.4055C18.5731 15.9662 18.2992 16.4817 17.8963 16.887C17.4933 17.2922 16.9794 17.569 16.4193 17.6825C15.8593 17.796 15.2781 17.7411 14.7492 17.5247C14.2203 17.3083 13.7673 16.9401 13.4475 16.4665C13.1276 15.993 12.9551 15.4353 12.9519 14.8638C12.9497 14.4825 13.0229 14.1045 13.1673 13.7516C13.3117 13.3987 13.5244 13.0778 13.7933 12.8074C14.0621 12.537 14.3818 12.3224 14.7339 12.176C15.086 12.0296 15.4635 11.9542 15.8448 11.9542ZM21.4811 19.9515H26.2861V22.1461C26.7671 21.3253 27.4619 20.6504 28.2965 20.1936C29.131 19.7368 30.0739 19.5152 31.0246 19.5524C36.0125 19.5524 37.0267 22.8777 37.0267 27.2171V36.0457H32.0388V28.2646C32.0388 26.4024 32.0388 23.9916 29.4451 23.9916C26.8514 23.9916 26.4524 26.02 26.4524 28.1149V36.0789H21.4645L21.4811 19.9515Z" fill="white"/>
</svg>
